<svg width="270" height="216" viewBox="0 0 270 216" fill="none" xmlns="http://www.w3.org/2000/svg">
<path d="M152.372 32.0926C135.875 32.0898 119.803 36.9115 106.471 45.863C93.1389 54.8146 83.235 67.434 78.1859 81.9035C73.1368 96.3729 73.203 111.945 78.3752 126.378C83.5473 140.811 93.5583 153.358 106.966 162.213C105.847 170.151 107.801 178.198 112.486 184.939V214.203H200.017V160.658C212.893 151.504 222.336 138.866 227.022 124.517C231.708 110.168 231.403 94.8275 226.148 80.6468C220.893 66.4661 210.952 54.1563 197.72 45.4435C184.488 36.7308 168.628 32.0521 152.364 32.0636L152.372 32.0926Z" fill="white"/>
<path d="M241.283 126.497C181.785 -124.96 -113.391 64.016 110.688 178.691C124.094 184.987 137.909 190.995 152.135 196.716C159.301 199.384 166.837 201.978 174.743 204.497L242.426 145.714C242.142 139.257 241.761 132.852 241.283 126.497Z" fill="#FFFACF" fill-opacity="0.94"/>
<path d="M173.971 205.194L199.993 182.563V160.658C209.418 153.96 217.048 145.357 222.296 135.513C227.543 125.67 230.267 114.847 230.258 103.88C230.258 101.701 230.132 99.5213 229.927 97.4143L224.825 77.3914C220.366 67.0565 213.362 57.8174 204.365 50.4028C195.368 42.9883 184.625 37.6009 172.982 34.6658C161.339 31.7306 149.114 31.3279 137.274 33.4894C125.433 35.6509 114.299 40.3175 104.75 47.1211C95.2013 53.9248 87.4989 62.6794 82.2503 72.6944C77.0016 82.7095 74.3504 93.7111 74.5057 104.832C74.6609 115.952 77.6184 126.887 83.1448 136.774C88.6712 146.662 96.6155 155.231 106.351 161.806L109.166 163.615C110.262 164.284 111.366 164.937 112.502 165.562V165.751L173.971 205.194Z" fill="#FFFEF2"/>
<path d="M115.83 167.887C108.068 154.275 105.254 138.726 107.802 123.53C110.35 108.334 118.126 94.2929 129.985 83.4736C141.844 72.6542 157.16 65.6281 173.678 63.4293C190.196 61.2305 207.044 63.9752 221.742 71.2595C216.398 61.5998 208.747 53.181 199.366 46.6351C189.985 40.0893 179.116 35.5865 167.575 33.4649C156.034 31.3432 144.122 31.6578 132.732 34.385C121.342 37.1122 110.771 42.1811 101.812 49.2113C92.8528 56.2414 85.7387 65.0501 81.0036 74.976C76.2686 84.9019 74.0356 95.6871 74.4724 106.522C74.9092 117.357 78.0044 127.96 83.5256 137.535C89.0468 147.109 96.8505 155.408 106.351 161.806L109.166 163.615C110.262 164.284 111.366 164.937 112.502 165.562V165.751L115.83 167.887Z" fill="#FFF48C"/>
<path d="M112.502 184.953V214.203M200.025 214.203V160.658C212.981 151.429 222.452 138.674 227.092 124.204C231.732 109.734 231.305 94.2845 225.872 80.0505C220.439 65.8165 210.277 53.5215 196.828 44.9117C183.379 36.302 167.327 31.8152 150.953 32.0888C134.579 32.3624 118.715 37.3824 105.613 46.4358C92.5122 55.4892 82.8402 68.1156 77.9712 82.5218C73.1022 96.9279 73.2838 112.381 78.4902 126.687C83.6966 140.993 93.663 153.423 106.974 162.213" stroke="#45413C" stroke-width="2.42" stroke-linecap="round" stroke-linejoin="round"/>
<path d="M42.7136 92.7137C42.7136 89.7131 45.3395 87.2865 48.0443 87.3519L76.4327 87.3156C85.6432 56.0751 116.334 32.9789 152.924 32.9353C172.377 32.913 191.147 39.5478 205.592 51.5528C220.037 63.5579 229.128 80.0777 231.102 97.9083L156.693 97.9955L84.2711 98.0827L48.6594 98.1263C47.882 98.1349 47.1104 98.0013 46.3894 97.7332C45.6684 97.465 45.0124 97.0677 44.4593 96.5643C43.9063 96.0608 43.4672 95.4612 43.1675 94.8002C42.8678 94.1392 42.7136 93.43 42.7136 92.7137Z" fill="#FF6242"/>
<path d="M188.993 88.9504C188.992 87.5257 188.686 86.1151 188.093 84.7994C187.499 83.4837 186.631 82.2886 185.536 81.2825C184.441 80.2765 183.141 79.4791 181.712 78.9361C180.282 78.3931 178.75 78.1151 177.204 78.1179C169.255 78.1179 165.446 83.1673 165.454 88.9795L188.993 88.9504Z" fill="white"/>
<path d="M145.022 32.9354C145.022 34.8526 145.849 36.6913 147.32 38.047C148.792 39.4027 150.788 40.1643 152.869 40.1643C154.949 40.1643 156.945 39.4027 158.417 38.047C159.888 36.6913 160.715 34.8526 160.715 32.9354C160.715 31.0182 159.888 29.1795 158.417 27.8238C156.945 26.4681 154.949 25.7065 152.869 25.7065C150.788 25.7065 148.792 26.4681 147.32 27.8238C145.849 29.1795 145.022 31.0182 145.022 32.9354Z" fill="#FF6242" stroke="#45413C" stroke-width="2.42" stroke-linecap="round" stroke-linejoin="round"/>
<path d="M223.429 73.3954C216.959 61.2413 206.915 51.0051 194.44 43.8521C181.966 36.699 167.562 32.9166 152.868 32.9353C122.28 32.9353 95.8157 49.1368 82.5836 72.7197C91.6148 63.8156 102.547 56.7286 114.694 51.9042C126.841 47.0797 139.94 44.6219 153.167 44.6854C166.394 44.7488 179.464 47.3321 191.556 52.2729C203.648 57.2136 214.499 64.4051 223.429 73.3954Z" fill="#FF866E"/>
<path d="M48.6042 98.1263L84.2159 98.0827L156.638 97.9955L231.047 97.9083C229.073 80.0777 219.982 63.5579 205.537 51.5528C191.092 39.5478 172.322 32.913 152.869 32.9353C116.311 32.9789 85.6195 56.0533 76.3775 87.3156L47.9892 87.3519C45.2844 87.2865 42.6584 89.7131 42.6584 92.7137C42.6584 93.43 42.8127 94.1392 43.1123 94.8002C43.412 95.4612 43.8511 96.0608 44.4042 96.5643C44.9572 97.0677 45.6133 97.465 46.3342 97.7332C47.0552 98.0013 47.8268 98.1349 48.6042 98.1263ZM165.454 88.9503C165.454 83.1381 169.255 78.096 177.204 78.0887C178.753 78.0859 180.287 78.3649 181.719 78.9097C183.151 79.4545 184.451 80.2544 185.547 81.2636C186.642 82.2728 187.51 83.4713 188.102 84.7904C188.693 86.1094 188.996 87.5231 188.993 88.9503H165.454Z" stroke="#45413C" stroke-width="2.42" stroke-linecap="round" stroke-linejoin="round"/>
<path d="M165.454 88.9504H160.549C159.504 88.9504 158.501 89.3331 157.761 90.0143C157.022 90.6956 156.606 91.6196 156.606 92.583V98.0029" stroke="#45413C" stroke-width="2.42" stroke-linecap="round" stroke-linejoin="round"/>
<path d="M75.4629 92.2561C75.7862 90.6141 75.9676 88.9214 76.4092 87.3157Z" fill="white"/>
<path d="M75.4629 92.2561C75.7862 90.6141 75.9676 88.9214 76.4092 87.3157" stroke="#45413C" stroke-width="2.42" stroke-linecap="round" stroke-linejoin="round"/>
<path d="M225.978 202.091C225.867 202.973 225.474 203.78 224.873 204.365C224.272 204.949 223.502 205.272 222.705 205.273H182.136C179.736 205.273 177.877 203.175 178.164 200.794L184.171 151.027C184.414 149.018 186.118 147.506 188.142 147.506H228.739C229.212 147.508 229.68 147.623 230.111 147.844C230.541 148.065 230.925 148.386 231.235 148.787C231.545 149.187 231.775 149.657 231.909 150.165C232.043 150.672 232.078 151.206 232.012 151.731L225.978 202.091Z" fill="#F0F0F0" stroke="#45413C" stroke-width="2.42" stroke-linecap="round" stroke-linejoin="round"/>
<g clip-path="url(#clip0_161_1385)">
<path d="M212.792 179.969C212.473 180.529 212.103 181.042 211.68 181.51C211.104 182.147 210.636 182.586 210.281 182.826C209.729 183.22 209.149 183.41 208.538 183.398C208.1 183.38 207.577 183.252 206.974 183.012C206.367 182.773 205.806 182.644 205.288 182.623C204.744 182.601 204.156 182.683 203.522 182.872C202.887 183.062 202.379 183.153 201.994 183.149C201.408 183.146 200.836 182.903 200.277 182.419C199.919 182.128 199.478 181.636 198.955 180.944C198.393 180.204 197.943 179.355 197.606 178.393C197.245 177.355 197.087 176.357 197.135 175.4C197.189 174.302 197.515 173.368 198.112 172.597C198.581 171.978 199.189 171.5 199.937 171.16C200.685 170.821 201.483 170.665 202.332 170.688C202.797 170.707 203.4 170.854 204.145 171.125C204.888 171.397 205.367 171.539 205.579 171.548C205.738 171.554 206.284 171.433 207.211 171.185C208.087 170.956 208.821 170.876 209.416 170.943C211.027 171.12 212.216 171.712 212.975 172.723C211.492 173.411 210.724 174.427 210.672 175.768C210.633 176.813 211.035 177.701 211.875 178.426C212.255 178.763 212.686 179.028 213.169 179.224C213.05 179.484 212.924 179.732 212.792 179.969ZM209.7 167.389C209.66 168.208 209.271 168.958 208.535 169.637C207.649 170.444 206.603 170.888 205.498 170.766C205.489 170.668 205.486 170.564 205.491 170.455C205.531 169.669 205.974 168.845 206.722 168.186C207.095 167.852 207.563 167.581 208.123 167.372C208.683 167.167 209.208 167.063 209.696 167.061C209.705 167.171 209.706 167.281 209.7 167.389Z" fill="black"/>
</g>
<path d="M135.142 177.259C141.908 186.748 149.036 189.959 169.499 179.904C170.707 179.271 172.039 178.867 173.418 178.717C174.798 178.566 176.196 178.672 177.53 179.027C178.864 179.383 180.108 179.982 181.187 180.787C182.265 181.593 183.158 182.59 183.812 183.719C184.465 184.849 184.867 186.087 184.992 187.361C185.117 188.636 184.964 189.921 184.542 191.14C184.119 192.359 183.435 193.487 182.531 194.459C181.627 195.43 180.521 196.225 179.278 196.796C174.428 199.171 150.937 213.796 125.986 197.755C110.901 188.055 105.129 174.411 106.966 162.213" fill="white"/>
<path d="M135.142 177.259C141.908 186.748 149.036 189.959 169.499 179.904C170.707 179.271 172.039 178.867 173.418 178.717C174.798 178.566 176.196 178.672 177.53 179.027C178.864 179.383 180.108 179.982 181.187 180.787C182.265 181.593 183.158 182.59 183.812 183.719C184.465 184.849 184.867 186.087 184.992 187.361C185.117 188.636 184.964 189.921 184.542 191.14C184.119 192.359 183.435 193.487 182.531 194.459C181.627 195.43 180.521 196.225 179.278 196.796C174.428 199.171 150.937 213.796 125.986 197.755C110.901 188.055 105.129 174.411 106.966 162.213" stroke="#45413C" stroke-width="2.42" stroke-linecap="round" stroke-linejoin="round"/>
<path d="M225.724 184.742C225.724 185.999 225.993 187.243 226.515 188.404C227.037 189.565 227.802 190.62 228.766 191.508C229.73 192.397 230.875 193.102 232.135 193.582C233.395 194.063 234.746 194.311 236.11 194.311C237.473 194.311 238.824 194.063 240.084 193.582C241.344 193.102 242.489 192.397 243.453 191.508C244.418 190.62 245.183 189.565 245.704 188.404C246.226 187.243 246.495 185.999 246.495 184.742C246.495 182.205 245.401 179.771 243.453 177.977C241.506 176.182 238.864 175.174 236.11 175.174C233.355 175.174 230.714 176.182 228.766 177.977C226.818 179.771 225.724 182.205 225.724 184.742Z" fill="white" stroke="#45413C" stroke-width="2.42" stroke-linecap="round" stroke-linejoin="round"/>
<path d="M114.544 100.066C114.544 105.905 117.062 111.504 121.542 115.632C126.023 119.761 132.101 122.08 138.438 122.08C144.775 122.08 150.852 119.761 155.333 115.632C159.814 111.504 162.331 105.905 162.331 100.066C162.331 94.2278 159.814 88.6286 155.333 84.5002C150.852 80.3718 144.775 78.0526 138.438 78.0526C132.101 78.0526 126.023 80.3718 121.542 84.5002C117.062 88.6286 114.544 94.2278 114.544 100.066Z" fill="white" stroke="#45413C" stroke-width="2.42" stroke-linecap="round" stroke-linejoin="round"/>
<path d="M184.198 100.066C184.198 105.905 186.716 111.504 191.197 115.632C195.677 119.761 201.755 122.08 208.092 122.08C214.429 122.08 220.506 119.761 224.987 115.632C229.468 111.504 231.985 105.905 231.985 100.066C231.985 94.2278 229.468 88.6286 224.987 84.5002C220.506 80.3718 214.429 78.0526 208.092 78.0526C201.755 78.0526 195.677 80.3718 191.197 84.5002C186.716 88.6286 184.198 94.2278 184.198 100.066Z" fill="white" stroke="#45413C" stroke-width="2.42" stroke-linecap="round" stroke-linejoin="round"/>
<path d="M177.093 128.372C177.123 129.137 176.985 129.9 176.687 130.616C176.39 131.331 175.939 131.984 175.362 132.535C174.784 133.087 174.092 133.525 173.327 133.824C172.562 134.124 171.739 134.278 170.907 134.278C170.076 134.278 169.253 134.124 168.487 133.824C167.722 133.525 167.03 133.087 166.452 132.535C165.875 131.984 165.424 131.331 165.127 130.616C164.829 129.9 164.691 129.137 164.721 128.372V122.668C166.618 123.623 168.745 124.123 170.907 124.123C173.069 124.123 175.196 123.623 177.093 122.668V128.372Z" fill="#FFA694" stroke="#45413C" stroke-width="2.42" stroke-linecap="round" stroke-linejoin="round"/>
<path d="M130.347 108.283C130.347 111.331 131.661 114.255 134.001 116.41C136.34 118.566 139.514 119.777 142.822 119.777C146.131 119.777 149.304 118.566 151.643 116.41C153.983 114.255 155.297 111.331 155.297 108.283C155.297 105.235 153.983 102.311 151.643 100.156C149.304 98.0005 146.131 96.7896 142.822 96.7896C139.514 96.7896 136.34 98.0005 134.001 100.156C131.661 102.311 130.347 105.235 130.347 108.283Z" fill="#45413C"/>
<path d="M149.911 103.132C151.993 105.312 152.64 107.934 151.37 108.944C150.101 109.954 148.871 107.905 146.797 105.711C144.723 103.517 142.586 102.013 143.855 100.996C145.125 99.979 147.806 100.931 149.911 103.132ZM135.977 114.887C135.472 114.333 135.226 113.616 135.292 112.894C135.359 112.173 135.733 111.505 136.332 111.037C137.578 109.998 138.012 111.189 139.077 112.272C140.141 113.354 141.442 113.921 140.165 114.96C139.885 115.209 139.554 115.405 139.192 115.536C138.83 115.667 138.444 115.731 138.055 115.724C137.666 115.717 137.282 115.64 136.926 115.496C136.569 115.353 136.247 115.146 135.977 114.887Z" fill="#FFFACF"/>
<path d="M197.699 108.283C197.699 111.331 199.013 114.255 201.352 116.41C203.692 118.566 206.865 119.777 210.174 119.777C213.482 119.777 216.655 118.566 218.995 116.41C221.334 114.255 222.649 111.331 222.649 108.283C222.649 105.235 221.334 102.311 218.995 100.156C216.655 98.0005 213.482 96.7896 210.174 96.7896C206.865 96.7896 203.692 98.0005 201.352 100.156C199.013 102.311 197.699 105.235 197.699 108.283Z" fill="#45413C"/>
<path d="M217.231 103.132C219.305 105.312 219.96 107.934 218.69 108.944C217.421 109.954 216.19 107.905 214.116 105.711C212.043 103.517 209.906 102.013 211.175 100.996C212.445 99.979 215.157 100.931 217.231 103.132ZM203.329 114.887C202.825 114.333 202.578 113.617 202.643 112.896C202.708 112.175 203.079 111.507 203.676 111.037C204.93 109.998 205.363 111.189 206.42 112.272C207.477 113.354 208.786 113.921 207.516 114.96C207.236 115.209 206.906 115.405 206.544 115.536C206.182 115.667 205.795 115.731 205.406 115.724C205.017 115.717 204.633 115.64 204.277 115.496C203.921 115.353 203.598 115.146 203.329 114.887Z" fill="#FFFACF"/>
<path d="M106.966 162.213C111.295 165.083 115.932 167.534 120.805 169.529M162.978 175.014C168.415 174.326 173.757 173.108 178.915 171.382" stroke="#45413C" stroke-width="2.42" stroke-linecap="round" stroke-linejoin="round"/>
<path d="M213.17 41.4139L205.032 22.241M87.7645 37.6287L76.5274 26.2296M55.5752 68.4551L32.3125 47.4513M62.7354 111.393L53.8246 104.905M63.5239 144.602L29.1503 119.595" stroke="#FFDA8F" stroke-width="2.42" stroke-miterlimit="10" stroke-linecap="round"/>
<path d="M2 80.8641C12.3539 80.7697 20.8546 90.3089 20.9808 102.231C20.8546 90.338 29.1425 80.6171 39.5121 80.5227C29.1582 80.6171 20.6654 71.0779 20.5313 59.1556C20.6496 71.0488 12.3539 80.7697 2 80.8641ZM106.745 15.448C113.164 15.3898 118.424 21.3255 118.503 28.6925C118.424 21.3255 123.565 15.3026 129.976 15.2445C123.565 15.3026 118.298 9.37421 118.219 2C118.298 9.37421 113.164 15.3898 106.745 15.448ZM244.792 127.107C251.211 127.049 256.478 132.985 256.557 140.352C256.478 132.985 261.612 126.955 268.023 126.897C261.612 126.955 256.344 121.026 256.265 113.659C256.368 121.026 251.211 127.049 244.792 127.107Z" fill="#FFE500" stroke="#EBCB00" stroke-width="2.42" stroke-linecap="round" stroke-linejoin="round"/>
<defs>
<clipPath id="clip0_161_1385">
<rect width="19.2388" height="16.3898" fill="white" transform="matrix(0.999175 0.0406154 -0.0495931 0.998769 195.971 166.503)"/>
</clipPath>
</defs>
</svg>
